<svg width="27" height="27" fill="none" xmlns="http://www.w3.org/2000/svg"><path d="M40.022 21.168c3.297 0 5.649-1.764 6.363-4.599l-2.457-.525c-.462 1.848-1.848 2.961-3.906 2.961-2.709 0-4.725-1.869-4.725-5.355 0-3.486 2.037-5.376 4.725-5.376 2.037 0 3.528 1.197 3.948 3.171l2.436-.525c-.525-2.919-2.982-4.788-6.384-4.788-3.759 0-7.224 2.499-7.224 7.518s3.423 7.518 7.224 7.518zM48.02 21h2.289v-4.578c0-2.583 1.07-4.116 2.835-4.116 1.428 0 2.31.861 2.31 2.268V21h2.289v-6.951c0-2.31-1.575-3.801-3.97-3.801-1.49 0-2.73.672-3.464 1.995V6.132h-2.29V21zm16.8.168c3.171 0 5.46-2.289 5.46-5.46s-2.289-5.46-5.46-5.46c-3.192 0-5.46 2.289-5.46 5.46s2.268 5.46 5.46 5.46zm0-1.995c-1.89 0-3.15-1.428-3.15-3.465s1.26-3.465 3.15-3.465c1.869 0 3.15 1.428 3.15 3.465s-1.281 3.465-3.15 3.465zM73.983 21h2.1l2.29-7.371L80.66 21h2.121l3.255-10.584h-2.33l-1.996 7.392-2.268-7.392h-2.12l-2.29 7.392-1.995-7.392h-2.33L73.982 21zm13.514 0h2.33V10.206L96.59 21h2.583V6.3H96.82v10.815L90.08 6.3h-2.583V21zm18.869.168c3.171 0 5.46-2.289 5.46-5.46s-2.289-5.46-5.46-5.46c-3.192 0-5.46 2.289-5.46 5.46s2.268 5.46 5.46 5.46zm0-1.995c-1.89 0-3.15-1.428-3.15-3.465s1.26-3.465 3.15-3.465c1.869 0 3.15 1.428 3.15 3.465s-1.281 3.465-3.15 3.465zM115.529 21h2.1l2.289-7.371L122.207 21h2.121l3.255-10.584h-2.331l-1.995 7.392-2.268-7.392h-2.121l-2.289 7.392-1.995-7.392h-2.331L115.529 21z" fill="#fff"/><ellipse cx="12.01" cy="12.561" rx="8.597" ry="8.85" fill="#fff"/><path d="M24.147 12.076C24.147 5.407 18.74 0 12.077 0 5.406 0 0 5.407 0 12.076c0 .17.006.336.011.5-.011.535.046 1.73.603 3.304a11.994 11.994 0 002.343 4.11c1.648 2.053 4.201 4.265 8.164 6.295a2.085 2.085 0 001.905 0c3.963-2.036 6.521-4.242 8.165-6.294a11.993 11.993 0 002.342-4.11c.557-1.57.614-2.77.603-3.304.005-.17.011-.336.011-.5zM7.181 6.646a.969.969 0 011.399.029l2.547 2.763-1.103 1.2-2.809-2.593a.969.969 0 01-.034-1.398zm11.747 9.962a.168.168 0 01-.233 0l-2.377-2.69a.415.415 0 00-.591 0 .415.415 0 000 .592l2.399 2.666a.302.302 0 010 .421.302.302 0 01-.42 0l-2.667-2.4a.415.415 0 00-.592 0 .415.415 0 000 .592l2.69 2.377a.168.168 0 010 .233.18.18 0 01-.177.04s-1.859-.694-2.803-1.638c-.58-.58-.87-1.28-.88-1.933l-.007.006c-.005-.654.086-1.086-.477-1.66l-.71-.66-.751.694c-.563.716-.433 1.2-.433 1.785l-.005-.006c-.012.694-.319 1.433-.933 2.047-1.148 1.149-3.275 1.774-4.196.847-.926-.927-.301-3.053.847-4.201.614-.615 1.354-.921 2.047-.933l-.005-.006c.585-.005 1.051.114 1.74-.46l5.202-5.64a.969.969 0 111.37 1.37l-3.85 3.553.626.677c.569.552 1.001.466 1.655.472l-.006.006c.66.011 1.353.301 1.933.88.944.945 1.632 2.798 1.632 2.798.029.051.017.12-.028.17z" fill="#FD4F57"/></svg>